<svg width="363" height="224" fill="none" xmlns="http://www.w3.org/2000/svg"><g filter="url(#a)"><rect x="60" y="30" width="243" height="104" rx="10" fill="#2C3239"/><path d="M149.094 108a.536.536 0 0 1-.396-.154.555.555 0 0 1-.132-.374V96.076l-3.344 2.574a.586.586 0 0 1-.396.11.619.619 0 0 1-.352-.242l-.924-1.188a.622.622 0 0 1-.11-.418.537.537 0 0 1 .242-.352l4.928-3.806a.562.562 0 0 1 .264-.132c.088-.015.183-.022.286-.022h1.936a.51.51 0 0 1 .374.154.508.508 0 0 1 .154.374v14.344a.508.508 0 0 1-.154.374.508.508 0 0 1-.374.154h-2.002Zm11.306.22c-1.042 0-1.929-.154-2.662-.462-.734-.308-1.335-.733-1.804-1.276a5.454 5.454 0 0 1-1.056-1.87 8.888 8.888 0 0 1-.418-2.288c-.015-.396-.03-.829-.044-1.298v-1.452c.014-.484.029-.931.044-1.342a7.542 7.542 0 0 1 .418-2.266 5.469 5.469 0 0 1 1.078-1.87c.484-.528 1.092-.946 1.826-1.254.733-.308 1.606-.462 2.618-.462 1.026 0 1.906.154 2.64.462.733.308 1.334.726 1.804 1.254a5.051 5.051 0 0 1 1.078 1.87c.249.704.388 1.46.418 2.266.029.41.044.858.044 1.342v1.452c0 .469-.015.902-.044 1.298a8.358 8.358 0 0 1-.396 2.288 5.486 5.486 0 0 1-1.056 1.87c-.47.543-1.078.968-1.826 1.276-.734.308-1.621.462-2.662.462Zm0-2.53c.953 0 1.65-.308 2.09-.924.454-.631.689-1.481.704-2.552.029-.425.044-.851.044-1.276v-1.32c0-.44-.015-.858-.044-1.254-.015-1.041-.25-1.877-.704-2.508-.44-.645-1.137-.968-2.09-.968-.939 0-1.636.323-2.09.968-.44.63-.675 1.467-.704 2.508 0 .396-.008.814-.022 1.254v1.32c.014.425.022.851.022 1.276.029 1.071.271 1.921.726 2.552.454.616 1.144.924 2.068.924Zm14.459 2.53c-1.042 0-1.929-.154-2.662-.462-.734-.308-1.335-.733-1.804-1.276a5.454 5.454 0 0 1-1.056-1.87 8.888 8.888 0 0 1-.418-2.288c-.015-.396-.03-.829-.044-1.298v-1.452c.014-.484.029-.931.044-1.342a7.542 7.542 0 0 1 .418-2.266 5.469 5.469 0 0 1 1.078-1.87c.484-.528 1.092-.946 1.826-1.254.733-.308 1.606-.462 2.618-.462 1.026 0 1.906.154 2.64.462.733.308 1.334.726 1.804 1.254a5.051 5.051 0 0 1 1.078 1.87c.249.704.388 1.46.418 2.266.029.41.044.858.044 1.342v1.452c0 .469-.015.902-.044 1.298a8.358 8.358 0 0 1-.396 2.288 5.486 5.486 0 0 1-1.056 1.87c-.47.543-1.078.968-1.826 1.276-.734.308-1.621.462-2.662.462Zm0-2.53c.953 0 1.65-.308 2.09-.924.454-.631.689-1.481.704-2.552.029-.425.044-.851.044-1.276v-1.32c0-.44-.015-.858-.044-1.254-.015-1.041-.25-1.877-.704-2.508-.44-.645-1.137-.968-2.09-.968-.939 0-1.636.323-2.09.968-.44.63-.675 1.467-.704 2.508 0 .396-.008.814-.022 1.254v1.32c.014.425.022.851.022 1.276.029 1.071.271 1.921.726 2.552.454.616 1.144.924 2.068.924Zm20.058 2.53c-.851 0-1.562-.147-2.134-.44a4.363 4.363 0 0 1-1.386-1.122v.814a.508.508 0 0 1-.154.374.465.465 0 0 1-.374.154h-1.738a.508.508 0 0 1-.374-.154.508.508 0 0 1-.154-.374V92.908c0-.147.051-.271.154-.374a.51.51 0 0 1 .374-.154h1.87c.161 0 .286.051.374.154a.508.508 0 0 1 .154.374v4.884a4.2 4.2 0 0 1 1.364-1.034c.557-.279 1.232-.418 2.024-.418.777 0 1.452.132 2.024.396a3.839 3.839 0 0 1 1.43 1.122c.396.47.697 1.02.902 1.65.205.631.315 1.313.33 2.046.015.264.022.506.022.726 0 .205-.007.44-.022.704a7.947 7.947 0 0 1-.352 2.112 5.075 5.075 0 0 1-.88 1.65 3.941 3.941 0 0 1-1.43 1.1c-.572.249-1.247.374-2.024.374Zm-.814-2.354c.631 0 1.122-.132 1.474-.396.352-.279.609-.638.77-1.078.161-.44.257-.924.286-1.452.015-.44.015-.88 0-1.32a5.005 5.005 0 0 0-.286-1.452 2.254 2.254 0 0 0-.77-1.056c-.352-.279-.843-.418-1.474-.418-.587 0-1.063.132-1.43.396a2.55 2.55 0 0 0-.836 1.012 3.098 3.098 0 0 0-.308 1.254c-.015.264-.022.55-.022.858 0 .293.007.572.022.836.029.455.125.902.286 1.342.176.425.447.777.814 1.056.381.279.873.418 1.474.418Zm8.52 6.314a.508.508 0 0 1-.374-.154.508.508 0 0 1-.154-.374V97.088c0-.147.051-.271.154-.374a.51.51 0 0 1 .374-.154h1.738c.161 0 .286.051.374.154a.508.508 0 0 1 .154.374v.88c.352-.47.814-.858 1.386-1.166.572-.308 1.283-.462 2.134-.462.777 0 1.452.125 2.024.374.572.25 1.049.609 1.43 1.078.381.455.675.997.88 1.628.205.631.323 1.327.352 2.09a13.958 13.958 0 0 1 0 1.562 7.058 7.058 0 0 1-.33 2.046 4.889 4.889 0 0 1-.902 1.628 4.046 4.046 0 0 1-1.43 1.078c-.572.264-1.247.396-2.024.396-.792 0-1.467-.139-2.024-.418a4.011 4.011 0 0 1-1.364-1.144v4.994a.508.508 0 0 1-.154.374.465.465 0 0 1-.374.154h-1.87Zm4.972-6.314c.631 0 1.122-.132 1.474-.396.352-.279.609-.638.77-1.078.161-.44.257-.924.286-1.452.015-.44.015-.88 0-1.32a5.005 5.005 0 0 0-.286-1.452 2.254 2.254 0 0 0-.77-1.056c-.352-.279-.843-.418-1.474-.418-.601 0-1.093.14-1.474.418a2.483 2.483 0 0 0-.814 1.078 4.518 4.518 0 0 0-.286 1.32 15.993 15.993 0 0 0 0 1.694c.015.44.117.865.308 1.276.191.396.469.726.836.99s.843.396 1.43.396Zm8.52 2.134a.506.506 0 0 1-.374-.154.508.508 0 0 1-.154-.374V97.088c0-.147.051-.271.154-.374a.507.507 0 0 1 .374-.154h1.716a.51.51 0 0 1 .374.154.512.512 0 0 1 .154.374v.748c.308-.41.718-.755 1.232-1.034.528-.293 1.151-.447 1.87-.462 1.672-.03 2.838.623 3.498 1.958a3.723 3.723 0 0 1 1.452-1.408 4.241 4.241 0 0 1 2.134-.55c.762 0 1.452.176 2.068.528.63.352 1.122.887 1.474 1.606.366.704.55 1.599.55 2.684v6.314a.512.512 0 0 1-.154.374.51.51 0 0 1-.374.154h-1.804a.506.506 0 0 1-.374-.154.508.508 0 0 1-.154-.374v-6.138c0-.66-.096-1.181-.286-1.562-.191-.396-.448-.675-.77-.836a2.378 2.378 0 0 0-1.078-.242c-.323 0-.646.08-.968.242-.323.161-.587.44-.792.836-.206.381-.308.902-.308 1.562v6.138a.512.512 0 0 1-.154.374.51.51 0 0 1-.374.154h-1.804a.506.506 0 0 1-.374-.154.508.508 0 0 1-.154-.374v-6.138c0-.66-.103-1.181-.308-1.562-.206-.396-.47-.675-.792-.836a2.284 2.284 0 0 0-1.034-.242 2.04 2.04 0 0 0-.99.264c-.323.161-.587.433-.792.814-.206.381-.308.902-.308 1.562v6.138a.512.512 0 0 1-.154.374.51.51 0 0 1-.374.154h-1.848Z" fill="#fff"/><path d="M152.774 58.3a5.345 5.345 0 0 0-1.152-.45 7.607 7.607 0 0 0-1.17-.252 5.99 5.99 0 0 0-.918-.09c-.9 0-1.71.156-2.43.468a5.452 5.452 0 0 0-1.872 1.332 5.988 5.988 0 0 0-1.188 2.052c-.276.78-.414 1.638-.414 2.574 0 .876.12 1.698.36 2.466.252.768.624 1.44 1.116 2.016a5.116 5.116 0 0 0 1.818 1.35c.732.324 1.572.486 2.52.486.336 0 .708-.036 1.116-.108.42-.06.834-.15 1.242-.27.408-.12.768-.258 1.08-.414L152 67.732c-.372.156-.78.288-1.224.396a6.083 6.083 0 0 1-1.44.162c-.528 0-.996-.114-1.404-.342a2.992 2.992 0 0 1-1.026-.954 5.368 5.368 0 0 1-.63-1.404 6.336 6.336 0 0 1-.216-1.674c0-.936.15-1.728.45-2.376.3-.66.708-1.17 1.224-1.53a2.95 2.95 0 0 1 1.728-.54c.36 0 .666.024.918.072.252.048.51.108.774.18.264.06.564.144.9.252l.72-1.674Zm3.158 9.09c0-.312.108-.594.324-.846.216-.252.528-.378.936-.378h1.764v1.332c-.3.288-.618.504-.954.648a2.376 2.376 0 0 1-.972.216 1.27 1.27 0 0 1-.576-.126 1.207 1.207 0 0 1-.378-.36.915.915 0 0 1-.144-.486Zm-.936-3.618a7.476 7.476 0 0 1 1.206-.396c.48-.12.924-.18 1.332-.18.432 0 .768.126 1.008.378.252.24.384.576.396 1.008v.018h-1.71c-.984.012-1.782.258-2.394.738-.612.468-.918 1.152-.918 2.052 0 .84.258 1.524.774 2.052.516.516 1.308.774 2.376.774.432 0 .84-.108 1.224-.324a4.466 4.466 0 0 0 1.08-.828l.396.936h1.53v-5.742c0-.624-.174-1.176-.522-1.656a3.393 3.393 0 0 0-1.368-1.152 4.358 4.358 0 0 0-1.908-.414c-.24 0-.57.036-.99.108-.408.072-.81.168-1.206.288-.396.108-.708.24-.936.396l.63 1.944ZM165.705 70V57.292l-2.322.198V70h2.322Zm6.278.216c-.948 0-1.77-.186-2.466-.558a3.961 3.961 0 0 1-1.62-1.584c-.384-.696-.576-1.506-.576-2.43.012-.936.204-1.746.576-2.43a3.931 3.931 0 0 1 1.62-1.602c.708-.384 1.53-.576 2.466-.576.96 0 1.782.186 2.466.558.696.372 1.236.9 1.62 1.584.384.684.576 1.494.576 2.43 0 .924-.192 1.734-.576 2.43a4.048 4.048 0 0 1-1.62 1.62c-.696.372-1.518.558-2.466.558Zm.018-1.998c.444 0 .828-.114 1.152-.342.336-.228.6-.54.792-.936.192-.396.288-.84.288-1.332 0-.504-.096-.948-.288-1.332a2.227 2.227 0 0 0-.792-.9 2.034 2.034 0 0 0-1.17-.342c-.432 0-.822.114-1.17.342-.336.228-.6.54-.792.936-.192.384-.288.828-.288 1.332 0 .504.096.948.288 1.332.192.384.462.69.81.918.348.216.738.324 1.17.324ZM180.414 70v-5.328c.336-.3.69-.564 1.062-.792.384-.228.75-.408 1.098-.54.348-.132.66-.198.936-.198l-.468-1.872c-.312 0-.654.078-1.026.234-.36.156-.714.348-1.062.576a6.234 6.234 0 0 0-.882.648l-.774-1.458h-1.224V70h2.34Zm6.627 0v-8.73h-2.358V70h2.358Zm-1.188-9.954c.36 0 .666-.126.918-.378.252-.264.378-.582.378-.954s-.132-.684-.396-.936a1.25 1.25 0 0 0-.918-.378c-.36 0-.666.126-.918.378a1.271 1.271 0 0 0-.378.936c0 .372.126.69.378.954.252.252.564.378.936.378Zm10.985 6.282v-.72c0-.828-.144-1.59-.432-2.286a3.562 3.562 0 0 0-1.296-1.656c-.588-.42-1.338-.63-2.25-.63-.9 0-1.68.192-2.34.576-.66.372-1.17.906-1.53 1.602-.348.684-.522 1.494-.522 2.43 0 .924.186 1.734.558 2.43.372.684.93 1.212 1.674 1.584.756.372 1.698.558 2.826.558.504 0 .948-.048 1.332-.144.396-.084.75-.204 1.062-.36a5.08 5.08 0 0 0 .882-.576l-.684-1.692a6.93 6.93 0 0 1-1.17.558 3.992 3.992 0 0 1-1.368.216c-.576 0-1.044-.078-1.404-.234-.36-.156-.636-.372-.828-.648a2.688 2.688 0 0 1-.396-1.008h5.886Zm-5.868-1.566c.072-.384.192-.702.36-.954a1.7 1.7 0 0 1 1.476-.774c.312 0 .588.066.828.198.252.12.462.306.63.558.168.252.288.576.36.972h-3.654Zm6.797 4.554c.276.204.6.378.972.522.384.132.762.228 1.134.288.372.06.678.09.918.09 1.188 0 2.088-.24 2.7-.72.624-.48.936-1.146.936-1.998 0-.516-.15-.96-.45-1.332a3.891 3.891 0 0 0-1.116-.99 6.2 6.2 0 0 0-1.404-.648c-.3-.108-.606-.228-.918-.36-.3-.144-.444-.306-.432-.486 0-.204.096-.378.288-.522.204-.156.456-.234.756-.234.396 0 .774.054 1.134.162.36.108.75.252 1.17.432l.702-1.566a4.038 4.038 0 0 0-.99-.504 7.943 7.943 0 0 0-1.098-.306 4.539 4.539 0 0 0-.9-.108c-1.056 0-1.89.24-2.502.72-.6.468-.9 1.116-.9 1.944 0 .48.144.894.432 1.242.3.348.672.642 1.116.882.456.228.906.42 1.35.576.336.096.612.204.828.324a1.7 1.7 0 0 1 .522.396.65.65 0 0 1 .18.45c0 .168-.084.312-.252.432a1.835 1.835 0 0 1-.558.252 2.9 2.9 0 0 1-.63.072c-.216 0-.45-.024-.702-.072a7.08 7.08 0 0 1-.756-.198c-.264-.096-.54-.198-.828-.306l-.702 1.566ZM215.47 70c.648 0 1.236-.078 1.764-.234a4.104 4.104 0 0 0 1.386-.72c.384-.312.672-.69.864-1.134.204-.444.306-.948.306-1.512 0-.756-.18-1.38-.54-1.872a3.75 3.75 0 0 0-1.35-1.17c.336-.264.642-.576.918-.936.276-.372.414-.786.414-1.242 0-.828-.174-1.488-.522-1.98-.336-.504-.81-.87-1.422-1.098-.6-.228-1.296-.342-2.088-.342h-4.752V70h5.022Zm-.612-10.296c.396 0 .732.048 1.008.144.288.084.504.24.648.468.156.216.234.516.234.9 0 .348-.096.636-.288.864-.192.228-.462.396-.81.504-.336.108-.72.162-1.152.162h-1.728v-3.042h2.088Zm.594 4.932c.576 0 1.038.156 1.386.468.348.3.522.738.522 1.314 0 .348-.09.648-.27.9-.168.24-.408.426-.72.558-.3.132-.66.198-1.08.198h-2.52v-3.438h2.682Zm11.644-3.366v6.048a9.086 9.086 0 0 1-.666.45 4.07 4.07 0 0 1-.792.396c-.276.108-.57.162-.882.162a1.11 1.11 0 0 1-.918-.432c-.228-.288-.342-.708-.342-1.26V61.27h-2.34v5.472c0 .672.084 1.278.252 1.818.168.528.468.948.9 1.26.432.312 1.044.468 1.836.468.312 0 .654-.054 1.026-.162a7.912 7.912 0 0 0 1.17-.396 6.67 6.67 0 0 0 1.17-.666l.378.936h1.548v-8.73h-2.34Zm6.685 8.73v-5.328c.336-.3.69-.564 1.062-.792.384-.228.75-.408 1.098-.54.348-.132.66-.198.936-.198l-.468-1.872c-.312 0-.654.078-1.026.234-.36.156-.714.348-1.062.576a6.234 6.234 0 0 0-.882.648l-.774-1.458h-1.224V70h2.34Zm6.61 0v-6.03l.666-.468c.252-.168.522-.306.81-.414.288-.108.576-.162.864-.162.384 0 .69.144.918.432.228.288.342.714.342 1.278V70h2.34v-5.472c0-.672-.09-1.272-.27-1.8a2.41 2.41 0 0 0-.9-1.278c-.42-.312-1.026-.468-1.818-.468-.312 0-.66.048-1.044.144a5.724 5.724 0 0 0-1.17.414c-.396.18-.78.396-1.152.648l-.396-.918h-1.53V70h2.34Zm15.702-3.672v-.72c0-.828-.144-1.59-.432-2.286a3.562 3.562 0 0 0-1.296-1.656c-.588-.42-1.338-.63-2.25-.63-.9 0-1.68.192-2.34.576-.66.372-1.17.906-1.53 1.602-.348.684-.522 1.494-.522 2.43 0 .924.186 1.734.558 2.43.372.684.93 1.212 1.674 1.584.756.372 1.698.558 2.826.558.504 0 .948-.048 1.332-.144.396-.084.75-.204 1.062-.36a5.08 5.08 0 0 0 .882-.576l-.684-1.692a6.93 6.93 0 0 1-1.17.558 3.992 3.992 0 0 1-1.368.216c-.576 0-1.044-.078-1.404-.234-.36-.156-.636-.372-.828-.648a2.688 2.688 0 0 1-.396-1.008h5.886Zm-5.868-1.566c.072-.384.192-.702.36-.954a1.7 1.7 0 0 1 1.476-.774c.312 0 .588.066.828.198.252.12.462.306.63.558.168.252.288.576.36.972h-3.654Zm13.098 3.6L264.439 70h1.224V57.292l-2.34.198v10.872Zm.486-1.296c-.42.384-.816.672-1.188.864-.36.192-.744.288-1.152.288-.42 0-.792-.108-1.116-.324a2.203 2.203 0 0 1-.72-.918 3.468 3.468 0 0 1-.234-1.314c0-.516.078-.966.234-1.35.168-.396.408-.708.72-.936.312-.228.69-.342 1.134-.342.396 0 .774.09 1.134.27.372.168.774.486 1.206.954l.648-1.584a3.197 3.197 0 0 0-.774-.792 4.244 4.244 0 0 0-1.098-.612 3.134 3.134 0 0 0-1.152-.234c-.936 0-1.74.198-2.412.594a3.91 3.91 0 0 0-1.53 1.62c-.348.684-.522 1.488-.522 2.412 0 .912.174 1.71.522 2.394.36.684.87 1.218 1.53 1.602.66.372 1.44.558 2.34.558.42 0 .81-.066 1.17-.198.372-.132.72-.318 1.044-.558.324-.252.618-.54.882-.864l-.666-1.53Z" fill="#4F5358"/><path d="M87.385 108h-3.077a2.29 2.29 0 0 1-1.632-.688A2.374 2.374 0 0 1 82 105.65v-14.1c0-.623.243-1.221.676-1.662a2.287 2.287 0 0 1 1.632-.688h3.077c.612 0 1.199.248 1.631.688.433.441.676 1.039.676 1.662v14.1c0 .623-.243 1.221-.676 1.662a2.29 2.29 0 0 1-1.631.688Zm21.538 0h-3.077a2.29 2.29 0 0 1-1.632-.688 2.377 2.377 0 0 1-.676-1.662v-23.5c0-.623.244-1.221.676-1.662a2.288 2.288 0 0 1 1.632-.688h3.077c.612 0 1.199.248 1.632.688.433.441.676 1.039.676 1.662v23.5c0 .623-.243 1.221-.676 1.662a2.29 2.29 0 0 1-1.632.688Zm10.769 0h-3.077a2.286 2.286 0 0 1-1.631-.688 2.373 2.373 0 0 1-.676-1.662V71.183c0-.623.243-1.22.676-1.661a2.284 2.284 0 0 1 1.631-.689h3.077c.612 0 1.199.248 1.632.689.433.44.676 1.038.676 1.661v34.467c0 .623-.243 1.221-.676 1.662a2.29 2.29 0 0 1-1.632.688Zm-21.538 0h-3.077a2.29 2.29 0 0 1-1.632-.688 2.374 2.374 0 0 1-.676-1.662v-42.3c0-.623.243-1.221.676-1.662A2.287 2.287 0 0 1 95.077 61h3.077c.612 0 1.199.248 1.632.688.432.441.676 1.039.676 1.662v42.3c0 .623-.244 1.221-.676 1.662a2.29 2.29 0 0 1-1.632.688Z" fill="#FD3D0C"/></g><defs><filter id="a" x="0" y="0" width="363" height="224" filterUnits="userSpaceOnUse" color-interpolation-filters="sRGB"><feFlood flood-opacity="0" result="BackgroundImageFix"/><feColorMatrix in="SourceAlpha" values="0 0 0 0 0 0 0 0 0 0 0 0 0 0 0 0 0 0 127 0" result="hardAlpha"/><feOffset dy="30"/><feGaussianBlur stdDeviation="30"/><feComposite in2="hardAlpha" operator="out"/><feColorMatrix values="0 0 0 0 0 0 0 0 0 0 0 0 0 0 0 0 0 0 0.4 0"/><feBlend in2="BackgroundImageFix" result="effect1_dropShadow_6_18"/><feBlend in="SourceGraphic" in2="effect1_dropShadow_6_18" result="shape"/></filter></defs></svg>