<svg width="255" height="270" fill="none" xmlns="http://www.w3.org/2000/svg"><g filter="url(#a)"><rect x="60" y="30" width="135" height="150" rx="10" fill="#141B22"/><path d="M86.094 154a.584.584 0 0 1-.396-.154.584.584 0 0 1-.154-.396v-10.472l-3.014 2.31a.498.498 0 0 1-.418.11.616.616 0 0 1-.352-.242l-1.298-1.694a.623.623 0 0 1-.11-.418.532.532 0 0 1 .264-.374l5.06-3.916a.694.694 0 0 1 .242-.11.908.908 0 0 1 .286-.044h2.75c.161 0 .293.051.396.154a.537.537 0 0 1 .154.396v14.3a.584.584 0 0 1-.154.396.535.535 0 0 1-.396.154h-2.86Zm12.3.22c-1.056 0-1.973-.147-2.75-.44-.763-.308-1.401-.726-1.915-1.254a5.28 5.28 0 0 1-1.165-1.848 7.591 7.591 0 0 1-.462-2.266c-.015-.396-.03-.843-.044-1.342v-1.54c.014-.528.029-.997.043-1.408a7.353 7.353 0 0 1 .463-2.244 5.315 5.315 0 0 1 1.188-1.826 5.472 5.472 0 0 1 1.936-1.232c.777-.293 1.679-.44 2.706-.44 1.04 0 1.943.147 2.706.44.777.293 1.422.704 1.936 1.232a5.323 5.323 0 0 1 1.188 1.826 6.97 6.97 0 0 1 .484 2.244c.014.411.022.88.022 1.408.014.513.014 1.027 0 1.54 0 .499-.008.946-.022 1.342a7.194 7.194 0 0 1-.484 2.266 5.284 5.284 0 0 1-1.166 1.848c-.499.528-1.137.946-1.914 1.254-.763.293-1.68.44-2.75.44Zm0-3.19c.762 0 1.312-.242 1.65-.726.352-.499.535-1.166.55-2.002.029-.425.044-.873.044-1.342.014-.469.014-.939 0-1.408 0-.469-.015-.902-.044-1.298-.015-.807-.198-1.459-.55-1.958-.338-.499-.888-.755-1.65-.77-.749.015-1.299.271-1.65.77-.338.499-.521 1.151-.55 1.958 0 .396-.008.829-.023 1.298v1.408c.015.469.022.917.022 1.342.03.836.22 1.503.573 2.002.352.484.894.726 1.627.726Zm14.953 3.19c-1.056 0-1.973-.147-2.75-.44-.763-.308-1.401-.726-1.914-1.254a5.27 5.27 0 0 1-1.166-1.848 7.591 7.591 0 0 1-.462-2.266c-.015-.396-.03-.843-.044-1.342v-1.54c.014-.528.029-.997.044-1.408a7.353 7.353 0 0 1 .462-2.244 5.294 5.294 0 0 1 1.188-1.826 5.468 5.468 0 0 1 1.936-1.232c.777-.293 1.679-.44 2.706-.44 1.041 0 1.943.147 2.706.44.777.293 1.422.704 1.936 1.232a5.323 5.323 0 0 1 1.188 1.826 6.97 6.97 0 0 1 .484 2.244c.014.411.022.88.022 1.408.014.513.014 1.027 0 1.54 0 .499-.008.946-.022 1.342a7.194 7.194 0 0 1-.484 2.266 5.284 5.284 0 0 1-1.166 1.848c-.499.528-1.137.946-1.914 1.254-.763.293-1.68.44-2.75.44Zm0-3.19c.762 0 1.312-.242 1.65-.726.352-.499.535-1.166.55-2.002.029-.425.044-.873.044-1.342.014-.469.014-.939 0-1.408 0-.469-.015-.902-.044-1.298-.015-.807-.198-1.459-.55-1.958-.338-.499-.888-.755-1.65-.77-.748.015-1.298.271-1.65.77-.338.499-.521 1.151-.55 1.958 0 .396-.008.829-.022 1.298v1.408c.014.469.022.917.022 1.342.029.836.22 1.503.572 2.002.352.484.894.726 1.628.726Zm20.472 3.19c-.806 0-1.488-.139-2.046-.418a4.158 4.158 0 0 1-1.364-1.056v.704a.543.543 0 0 1-.176.396.506.506 0 0 1-.374.154h-2.486a.536.536 0 0 1-.396-.154.588.588 0 0 1-.154-.396v-14.52a.54.54 0 0 1 .154-.396.536.536 0 0 1 .396-.154h2.684c.162 0 .294.051.396.154a.536.536 0 0 1 .154.396v4.708a4.22 4.22 0 0 1 1.342-.924c.528-.249 1.152-.374 1.87-.374.734 0 1.379.125 1.936.374a3.818 3.818 0 0 1 1.452 1.034c.396.44.704.983.924 1.628a7.21 7.21 0 0 1 .374 2.112c.015.293.022.557.022.792 0 .22-.007.477-.022.77-.029.821-.154 1.555-.374 2.2a4.706 4.706 0 0 1-.946 1.628 3.97 3.97 0 0 1-1.43 1.012c-.557.22-1.202.33-1.936.33Zm-1.188-2.948c.499 0 .888-.103 1.166-.308.279-.205.477-.484.594-.836.132-.352.213-.741.242-1.166.03-.455.03-.909 0-1.364a4.104 4.104 0 0 0-.242-1.166 1.654 1.654 0 0 0-.594-.836c-.278-.205-.667-.308-1.166-.308-.454 0-.828.103-1.122.308a1.78 1.78 0 0 0-.66.77 2.583 2.583 0 0 0-.242 1.012 16.264 16.264 0 0 0 0 1.65c.03.396.11.763.242 1.1.132.337.345.616.638.836.294.205.675.308 1.144.308Zm8.621 6.908a.504.504 0 0 1-.396-.176.512.512 0 0 1-.154-.374v-14.52a.54.54 0 0 1 .154-.396.536.536 0 0 1 .396-.154h2.486c.147 0 .272.051.374.154a.501.501 0 0 1 .176.396v.792c.352-.44.807-.807 1.364-1.1.558-.308 1.24-.462 2.046-.462.734 0 1.379.117 1.936.352.558.22 1.034.55 1.43.99.411.44.726.975.946 1.606.22.631.345 1.357.374 2.178.015.293.022.565.022.814s-.007.521-.022.814c-.029.792-.154 1.503-.374 2.134a4.66 4.66 0 0 1-.924 1.606c-.396.44-.88.785-1.452 1.034-.557.235-1.202.352-1.936.352-.718 0-1.349-.125-1.892-.374a3.693 3.693 0 0 1-1.32-1.1v4.884a.508.508 0 0 1-.154.374.501.501 0 0 1-.396.176h-2.684Zm5.258-6.908c.499 0 .888-.103 1.166-.308.279-.205.477-.484.594-.836.132-.352.213-.741.242-1.166.03-.455.03-.909 0-1.364a4.104 4.104 0 0 0-.242-1.166 1.654 1.654 0 0 0-.594-.836c-.278-.205-.667-.308-1.166-.308-.469 0-.85.11-1.144.33a1.752 1.752 0 0 0-.638.814 3.785 3.785 0 0 0-.242 1.1 16.264 16.264 0 0 0 0 1.65c.015.367.096.711.242 1.034.147.308.367.565.66.77.294.191.668.286 1.122.286Zm8.621 2.728a.536.536 0 0 1-.396-.154.588.588 0 0 1-.154-.396v-10.34a.54.54 0 0 1 .154-.396.536.536 0 0 1 .396-.154h2.398c.162 0 .294.051.396.154a.536.536 0 0 1 .154.396v.748c.294-.396.704-.741 1.232-1.034.528-.308 1.152-.469 1.87-.484 1.702-.044 2.868.587 3.498 1.892a3.888 3.888 0 0 1 1.43-1.364 4.173 4.173 0 0 1 2.068-.528c.763 0 1.445.176 2.046.528.616.337 1.108.865 1.474 1.584.367.704.55 1.621.55 2.75v6.248a.583.583 0 0 1-.154.396.533.533 0 0 1-.396.154h-2.552a.614.614 0 0 1-.418-.154.588.588 0 0 1-.154-.396v-6.094c0-.513-.073-.917-.22-1.21-.146-.308-.344-.528-.594-.66a1.804 1.804 0 0 0-1.65 0c-.249.132-.454.352-.616.66-.146.293-.22.697-.22 1.21v6.094a.583.583 0 0 1-.154.396.533.533 0 0 1-.396.154h-2.552a.536.536 0 0 1-.396-.154.588.588 0 0 1-.154-.396v-6.094c0-.513-.08-.917-.242-1.21-.161-.308-.366-.528-.616-.66a1.71 1.71 0 0 0-.814-.198c-.278 0-.55.066-.814.198-.249.132-.454.352-.616.66-.146.293-.22.689-.22 1.188v6.116a.543.543 0 0 1-.176.396.506.506 0 0 1-.374.154h-2.618Z" fill="#fff"/><path d="M90.998 116v-12.24h-2.322v5.184h-4.824v-5.274l-2.322.09V116h2.322v-5.184h4.824V116h2.322Zm10.355-3.672v-.72c0-.828-.144-1.59-.432-2.286a3.563 3.563 0 0 0-1.296-1.656c-.588-.42-1.338-.63-2.25-.63-.9 0-1.68.192-2.34.576-.66.372-1.17.906-1.53 1.602-.348.684-.522 1.494-.522 2.43 0 .924.186 1.734.558 2.43.372.684.93 1.212 1.674 1.584.756.372 1.698.558 2.826.558.504 0 .948-.048 1.332-.144.396-.084.75-.204 1.062-.36a5.08 5.08 0 0 0 .882-.576l-.684-1.692a6.928 6.928 0 0 1-1.17.558 3.992 3.992 0 0 1-1.368.216c-.576 0-1.044-.078-1.404-.234-.36-.156-.636-.372-.828-.648a2.688 2.688 0 0 1-.396-1.008h5.886Zm-5.868-1.566c.072-.384.192-.702.36-.954a1.7 1.7 0 0 1 1.476-.774c.312 0 .588.066.828.198.252.12.462.306.63.558.168.252.288.576.36.972h-3.654Zm9.084 2.628c0-.312.108-.594.324-.846.216-.252.528-.378.936-.378h1.764v1.332c-.3.288-.618.504-.954.648a2.376 2.376 0 0 1-.972.216 1.27 1.27 0 0 1-.576-.126 1.207 1.207 0 0 1-.378-.36.915.915 0 0 1-.144-.486Zm-.936-3.618a7.476 7.476 0 0 1 1.206-.396c.48-.12.924-.18 1.332-.18.432 0 .768.126 1.008.378.252.24.384.576.396 1.008v.018h-1.71c-.984.012-1.782.258-2.394.738-.612.468-.918 1.152-.918 2.052 0 .84.258 1.524.774 2.052.516.516 1.308.774 2.376.774.432 0 .84-.108 1.224-.324a4.466 4.466 0 0 0 1.08-.828l.396.936h1.53v-5.742c0-.624-.174-1.176-.522-1.656a3.393 3.393 0 0 0-1.368-1.152 4.358 4.358 0 0 0-1.908-.414c-.24 0-.57.036-.99.108-.408.072-.81.168-1.206.288-.396.108-.708.24-.936.396l.63 1.944ZM114.18 116v-5.328c.336-.3.69-.564 1.062-.792.384-.228.75-.408 1.098-.54.348-.132.66-.198.936-.198l-.468-1.872c-.312 0-.654.078-1.026.234-.36.156-.714.348-1.062.576a6.234 6.234 0 0 0-.882.648l-.774-1.458h-1.224V116h2.34Zm8.535-8.694h-1.584v-2.502l-2.322.414v2.088h-1.17l-.018 1.764h1.188v4.14c0 .672.144 1.242.432 1.71.288.468.684.828 1.188 1.08.516.24 1.134.36 1.854.36.192 0 .402-.03.63-.09a3.7 3.7 0 0 0 .648-.198c.204-.072.366-.156.486-.252l-.684-1.692c-.168.072-.33.126-.486.162a2.075 2.075 0 0 1-.468.054c-.42 0-.738-.144-.954-.432-.216-.288-.324-.66-.324-1.116v-3.726h2.304l-.72-1.764Zm10.934-1.602c.516 0 .954.066 1.314.198.36.132.636.342.828.63.204.276.306.642.306 1.098 0 .432-.108.78-.324 1.044-.204.252-.486.444-.846.576-.36.132-.774.198-1.242.198h-1.476v-3.744h1.44Zm-3.762-1.944V116h2.322v-4.644h1.08c.18 0 .36.006.54.018.192 0 .384-.006.576-.018l2.592 4.644h2.484l-2.988-5.274a3.8 3.8 0 0 0 1.476-1.242c.396-.552.594-1.206.594-1.962 0-.864-.222-1.572-.666-2.124-.432-.552-1.014-.96-1.746-1.224-.732-.276-1.548-.414-2.448-.414h-3.816Zm12.545 9.63c0-.312.108-.594.324-.846.216-.252.528-.378.936-.378h1.764v1.332c-.3.288-.618.504-.954.648a2.376 2.376 0 0 1-.972.216 1.27 1.27 0 0 1-.576-.126 1.207 1.207 0 0 1-.378-.36.915.915 0 0 1-.144-.486Zm-.936-3.618a7.476 7.476 0 0 1 1.206-.396c.48-.12.924-.18 1.332-.18.432 0 .768.126 1.008.378.252.24.384.576.396 1.008v.018h-1.71c-.984.012-1.782.258-2.394.738-.612.468-.918 1.152-.918 2.052 0 .84.258 1.524.774 2.052.516.516 1.308.774 2.376.774.432 0 .84-.108 1.224-.324a4.466 4.466 0 0 0 1.08-.828l.396.936h1.53v-5.742c0-.624-.174-1.176-.522-1.656a3.393 3.393 0 0 0-1.368-1.152 4.358 4.358 0 0 0-1.908-.414c-.24 0-.57.036-.99.108-.408.072-.81.168-1.206.288-.396.108-.708.24-.936.396l.63 1.944Zm12.473-2.466h-1.584v-2.502l-2.322.414v2.088h-1.17l-.018 1.764h1.188v4.14c0 .672.144 1.242.432 1.71.288.468.684.828 1.188 1.08.516.24 1.134.36 1.854.36.192 0 .402-.03.63-.09a3.7 3.7 0 0 0 .648-.198c.204-.072.366-.156.486-.252l-.684-1.692c-.168.072-.33.126-.486.162a2.075 2.075 0 0 1-.468.054c-.42 0-.738-.144-.954-.432-.216-.288-.324-.66-.324-1.116v-3.726h2.304l-.72-1.764Zm10.419 5.022v-.72c0-.828-.144-1.59-.432-2.286a3.562 3.562 0 0 0-1.296-1.656c-.588-.42-1.338-.63-2.25-.63-.9 0-1.68.192-2.34.576-.66.372-1.17.906-1.53 1.602-.348.684-.522 1.494-.522 2.43 0 .924.186 1.734.558 2.43.372.684.93 1.212 1.674 1.584.756.372 1.698.558 2.826.558.504 0 .948-.048 1.332-.144.396-.084.75-.204 1.062-.36a5.08 5.08 0 0 0 .882-.576l-.684-1.692a6.93 6.93 0 0 1-1.17.558 3.992 3.992 0 0 1-1.368.216c-.576 0-1.044-.078-1.404-.234-.36-.156-.636-.372-.828-.648a2.688 2.688 0 0 1-.396-1.008h5.886Zm-5.868-1.566c.072-.384.192-.702.36-.954a1.7 1.7 0 0 1 1.476-.774c.312 0 .588.066.828.198.252.12.462.306.63.558.168.252.288.576.36.972h-3.654Z" fill="#3D4549"/><path d="M98.282 83.75a2.812 2.812 0 0 1-1.582-.49c-6.907-4.689-9.898-7.904-11.548-9.914-3.515-4.284-5.198-8.683-5.151-13.447C80.056 54.44 84.436 50 89.764 50c3.874 0 6.557 2.182 8.12 4a.527.527 0 0 0 .796 0c1.563-1.82 4.246-4 8.121-4 5.328 0 9.707 4.44 9.762 9.9.048 4.765-1.637 9.164-5.151 13.447-1.649 2.01-4.64 5.225-11.548 9.914a2.813 2.813 0 0 1-1.582.489Z" fill="#F44336"/></g><defs><filter id="a" x="0" y="0" width="255" height="270" filterUnits="userSpaceOnUse" color-interpolation-filters="sRGB"><feFlood flood-opacity="0" result="BackgroundImageFix"/><feColorMatrix in="SourceAlpha" values="0 0 0 0 0 0 0 0 0 0 0 0 0 0 0 0 0 0 127 0" result="hardAlpha"/><feOffset dy="30"/><feGaussianBlur stdDeviation="30"/><feComposite in2="hardAlpha" operator="out"/><feColorMatrix values="0 0 0 0 0 0 0 0 0 0 0 0 0 0 0 0 0 0 0.4 0"/><feBlend in2="BackgroundImageFix" result="effect1_dropShadow_6_16"/><feBlend in="SourceGraphic" in2="effect1_dropShadow_6_16" result="shape"/></filter></defs></svg>